<?xml version="1.0" encoding="utf-8"?>
<!-- Generator: Adobe Illustrator 13.0.0, SVG Export Plug-In . SVG Version: 6.00 Build 14948)  -->
<!DOCTYPE svg PUBLIC "-//W3C//DTD SVG 1.1//EN" "http://www.w3.org/Graphics/SVG/1.1/DTD/svg11.dtd">
<svg version="1.1" id="Layer_1" xmlns="http://www.w3.org/2000/svg" xmlns:xlink="http://www.w3.org/1999/xlink" x="0px" y="0px"
	 width="1200px" height="1200px" viewBox="0 0 1200 1200" enable-background="new 0 0 1200 1200" xml:space="preserve">
<g>
	<defs>
		<rect id="SVGID_1_" width="1200" height="1200"/>
	</defs>
	<clipPath id="SVGID_2_">
		<use xlink:href="#SVGID_1_"  overflow="visible"/>
	</clipPath>
	<g id="XMLID_1_" clip-path="url(#SVGID_2_)">
		<g>
			<path d="M946.07,892.33c82.64,0,149.66,67.03,149.66,149.67c0,82.63-67.021,149.66-149.66,149.66
				c-82.641,0-149.67-67.03-149.67-149.66c0-38.27,14.529-74.62,40.35-102.21l-67.2-134.12c-6.54,0.78-13.13,1.17-19.729,1.17
				c-33.521,0-65.88-10.05-93.261-28.77l-76.089,67.01c0.52,3.93,0.77,7.9,0.77,11.89c0,50.41-40.89,91.311-91.31,91.311
				c-50.42,0-91.32-40.9-91.32-91.311c0-50.43,40.9-91.33,91.32-91.33c8.7,0,17.31,1.24,25.61,3.66l79.26-69.8
				c-4.04-10.73-6.93-21.85-8.65-33.19L397.21,640.86C371.36,688.9,320.95,719.6,265.39,719.6c-82.63,0-149.66-67.029-149.66-149.66
				c0-82.64,67.03-149.66,149.66-149.66c72.71,0,134.1,52.15,147.12,122.06l188.9,25.46c1.26-2.54,2.58-5.04,3.97-7.51L461.04,412.9
				c-18.73,8.12-38.94,12.31-59.51,12.31c-82.64,0-149.66-67.02-149.66-149.66c0-82.63,67.02-149.66,149.66-149.66
				c50.72,0,97.42,25.58,124.89,67.18l218.271-55.05C754.49,64.63,817.39,8.34,893.03,8.34c82.63,0,149.66,67.03,149.66,149.66
				c0,80.59-63.74,146.32-143.53,149.54L840.02,502.4c46.631,30.3,75.37,82.31,75.37,138.87c0,47.471-20.21,92.061-55.05,123.28
				l64.75,129.25C932.03,892.82,939.04,892.33,946.07,892.33z M744.01,475.8l59.95-197.53c-15.31-11.35-28.34-25.54-38.36-41.76
				l-215.18,54.27c-1.93,19-7.45,37.38-16.32,54.26l143.95,146.99C698.64,482.11,721.05,476.59,744.01,475.8z"/>
		</g>
		<g>
		</g>
	</g>
</g>
</svg>
